<?xml version="1.0" standalone="no"?>
<!DOCTYPE svg PUBLIC "-//W3C//DTD SVG 20010904//EN"
 "http://www.w3.org/TR/2001/REC-SVG-20010904/DTD/svg10.dtd">
<svg version="1.0" xmlns="http://www.w3.org/2000/svg"
 width="300.000000pt" height="300.000000pt" viewBox="0 0 300.000000 300.000000"
 preserveAspectRatio="xMidYMid meet">
<metadata>
Created by potrace 1.10, written by Peter Selinger 2001-2011
</metadata>
<g transform="translate(0.000000,300.000000) scale(0.050000,-0.050000)"
fill="#10b981" stroke="none">
<path d="M22 5866 c37 -99 472 -1469 617 -1946 363 -1190 443 -1386 722 -1760
838 -1122 2852 -2079 4375 -2080 l267 0 -48 61 -47 61 -256 9 c-785 28 -813
59 -1192 1348 -422 1432 -796 2230 -1300 2766 -588 627 -1600 1171 -2818 1514
-348 98 -347 98 -320 27z m298 -188 c0 -12 12 -18 28 -12 15 6 37 1 50 -12 12
-12 22 -15 22 -6 0 9 13 6 28 -6 15 -13 35 -21 45 -19 32 9 156 -28 206 -61
41 -27 46 -27 31 -2 -15 25 -12 26 12 6 44 -35 313 -124 330 -109 8 7 8 2 0
-12 -9 -16 -1 -25 26 -25 22 0 45 -9 52 -20 7 -12 21 -15 31 -9 11 6 19 2 19
-10 0 -11 7 -20 15 -18 49 11 119 -33 144 -89 15 -35 53 -121 84 -191 81 -180
181 -512 173 -574 -5 -46 -21 -33 -156 132 -254 311 -697 712 -949 861 -116
68 -81 27 64 -76 142 -101 178 -130 374 -303 170 -151 372 -372 348 -380 -67
-24 -431 127 -700 289 -62 37 -125 68 -140 68 -115 0 562 -335 755 -374 l158
-31 113 -143 c109 -138 341 -477 438 -640 l46 -78 -159 10 c-185 12 -370 70
-538 169 -95 56 -112 62 -80 26 91 -103 400 -214 660 -237 l140 -12 88 -180
c191 -385 243 -537 194 -564 -150 -84 -415 -24 -687 155 -36 24 -65 35 -65 26
0 -30 235 -165 364 -208 124 -42 294 -46 408 -10 36 12 47 0 78 -83 88 -235
290 -599 472 -850 l97 -135 -131 -40 c-284 -88 -587 -21 -814 179 -53 47 -100
80 -106 75 -20 -20 181 -177 300 -235 233 -113 496 -118 733 -13 22 10 82 -47
220 -209 104 -123 282 -312 396 -420 l206 -196 -72 -13 c-156 -29 -416 -1
-519 57 -113 63 -127 66 -90 21 78 -93 399 -152 613 -112 l104 19 105 -89
c163 -139 408 -326 611 -466 102 -70 185 -133 185 -141 0 -18 -82 1 -115 27
-14 11 -25 15 -25 9 0 -6 -88 21 -195 60 -107 39 -217 75 -245 81 -27 6 -55
19 -62 29 -6 9 -37 22 -69 28 -32 6 -64 20 -71 31 -7 11 -18 20 -25 19 -39 -4
-133 26 -133 42 0 10 -9 13 -20 6 -11 -7 -20 -2 -20 10 0 12 -9 17 -19 10 -11
-6 -56 7 -100 29 -43 23 -98 41 -121 41 -23 0 -37 9 -30 20 7 11 -10 20 -39
20 -29 0 -57 13 -64 30 -6 16 -18 25 -27 20 -24 -15 -122 41 -105 60 8 9 0 11
-19 4 -19 -7 -62 7 -100 33 -36 24 -95 56 -131 71 -36 15 -65 35 -65 44 0 10
-18 18 -41 18 -22 0 -46 14 -52 31 -7 17 -24 27 -39 21 -14 -6 -58 18 -97 53
-39 34 -83 64 -98 67 -15 2 -66 41 -114 86 -48 46 -98 79 -112 74 -14 -6 -31
8 -38 31 -7 22 -17 35 -23 30 -6 -6 -46 23 -90 63 -44 41 -90 74 -103 75 -13
0 -21 12 -18 25 3 13 -8 24 -25 24 -16 0 -103 74 -192 165 -225 228 -238 243
-238 272 0 14 -9 20 -20 13 -12 -7 -14 2 -6 22 10 27 5 32 -21 22 -26 -10 -33
-1 -33 42 -1 38 -6 46 -18 27 -12 -19 -21 -21 -31 -5 -7 12 -8 31 -1 42 7 11
0 25 -16 31 -16 6 -46 45 -66 85 -21 41 -59 99 -86 129 -27 30 -44 60 -37 67
7 7 -5 31 -27 54 -21 24 -35 54 -29 68 5 14 0 26 -12 26 -12 0 -16 13 -10 30
7 18 0 30 -18 30 -16 0 -30 18 -31 40 -4 53 -5 58 -44 146 -18 42 -31 83 -29
90 2 8 -8 35 -22 61 -15 25 -21 52 -15 58 7 6 2 23 -11 38 -12 15 -15 27 -7
27 8 0 4 13 -9 29 -14 16 -19 38 -13 49 7 10 -1 32 -16 48 -16 15 -26 52 -23
81 3 33 -4 53 -21 53 -14 0 -25 16 -24 35 1 19 -18 96 -43 171 -25 76 -47 159
-48 185 -2 27 -11 49 -21 49 -10 0 -13 6 -6 13 7 7 3 30 -8 51 -11 21 -25 58
-31 82 -14 64 -23 103 -28 114 -2 6 -3 17 -1 26 2 9 -10 35 -26 57 -16 23 -25
53 -19 67 5 14 -5 30 -22 37 -17 6 -31 23 -31 37 1 18 6 17 20 -4 36 -55 21
-2 -20 69 -21 39 -35 71 -29 71 6 0 0 19 -12 42 -23 43 -44 124 -46 182 -1 18
-7 30 -14 25 -7 -4 -25 44 -39 107 -15 63 -35 125 -45 138 -10 13 -13 34 -6
45 8 12 3 21 -10 21 -13 0 -18 13 -12 29 6 17 2 35 -9 42 -12 7 -16 26 -10 42
6 16 -1 33 -16 39 -14 6 -25 30 -24 54 2 24 -11 56 -28 70 -26 23 -26 25 0 12
21 -11 19 -3 -6 27 -25 28 -30 45 -14 55 15 9 12 22 -11 38 -25 19 -30 41 -20
88 13 60 51 91 51 42z m1195 -431 c26 -25 55 -35 90 -29 8 1 15 -7 15 -18 0
-11 23 -20 50 -20 29 0 50 -11 50 -28 0 -15 23 -33 51 -40 33 -9 45 -22 36
-38 -8 -13 2 -10 23 6 22 17 31 20 23 5 -10 -16 -4 -25 17 -25 19 0 27 -9 18
-23 -9 -14 -5 -18 8 -9 12 7 38 5 58 -6 20 -10 52 -24 72 -30 21 -7 31 -21 22
-35 -8 -14 -5 -18 8 -10 12 8 39 -5 61 -29 22 -23 49 -37 59 -30 11 6 31 -2
44 -18 13 -16 34 -24 45 -17 12 8 15 3 7 -10 -8 -13 -2 -23 16 -23 16 0 36
-10 44 -23 9 -15 5 -18 -12 -7 -18 11 -21 8 -11 -8 8 -14 27 -20 42 -14 15 6
33 1 40 -9 6 -11 22 -14 33 -6 13 8 16 4 8 -10 -9 -14 5 -31 36 -42 49 -19
125 -77 193 -148 20 -21 44 -32 55 -26 10 7 28 -10 41 -38 12 -27 34 -49 49
-49 37 0 118 -89 99 -110 -8 -9 -5 -10 8 -3 14 8 71 -42 140 -121 64 -74 142
-157 173 -183 33 -28 52 -61 45 -78 -7 -18 4 -33 29 -39 22 -6 40 -24 40 -41
0 -17 14 -41 31 -53 17 -13 33 -38 36 -57 3 -19 25 -57 49 -85 24 -27 38 -50
30 -50 -7 0 3 -12 23 -27 21 -15 31 -36 24 -48 -7 -11 2 -26 19 -33 18 -7 27
-25 21 -41 -6 -16 -3 -31 7 -35 9 -3 20 -19 24 -36 3 -16 18 -39 32 -50 14
-12 27 -41 29 -65 2 -25 11 -45 20 -45 10 0 12 -8 6 -18 -6 -11 2 -32 18 -48
16 -16 24 -35 17 -42 -7 -6 -2 -12 11 -12 13 0 21 -7 18 -15 -8 -24 71 -205
89 -205 9 0 16 -23 16 -51 0 -28 8 -46 18 -40 10 6 16 -11 13 -39 -4 -33 4
-50 24 -50 26 0 26 -5 2 -34 -18 -23 -19 -29 -2 -19 17 10 25 2 25 -26 0 -22
8 -41 18 -41 15 0 35 -69 46 -155 1 -14 11 -25 21 -25 11 0 14 -12 9 -28 -6
-15 3 -47 20 -71 16 -24 25 -49 18 -55 -6 -7 -2 -24 11 -39 12 -15 16 -27 9
-27 -7 0 1 -27 18 -60 17 -33 25 -60 17 -60 -7 0 1 -16 17 -35 17 -19 36 -57
42 -85 6 -27 22 -86 34 -130 13 -44 25 -102 27 -130 2 -27 14 -62 28 -76 21
-23 35 -99 27 -149 -1 -8 8 -15 20 -15 12 0 17 -14 11 -30 -7 -17 -5 -30 4
-30 9 0 17 -11 18 -25 4 -56 28 -145 42 -155 8 -5 14 -28 13 -50 0 -22 7 -51
16 -64 10 -13 12 -34 5 -45 -8 -12 -3 -21 10 -21 13 0 18 -14 11 -31 -6 -18
-3 -26 8 -19 21 13 23 8 27 -70 2 -27 14 -62 28 -76 14 -15 25 -44 25 -64 0
-21 9 -43 20 -50 11 -7 20 -26 20 -42 0 -17 34 -81 77 -144 126 -188 115 -193
-103 -47 -544 366 -1364 1117 -1284 1175 369 267 474 809 259 1344 -44 110
-59 97 -21 -18 134 -407 127 -768 -21 -1040 -52 -96 -225 -278 -264 -278 -37
0 -375 446 -522 688 l-84 138 50 112 c111 248 180 477 213 702 12 83 26 170
31 195 5 25 1 45 -11 45 -11 0 -20 -30 -20 -66 0 -187 -224 -934 -280 -934
-18 0 -157 299 -241 520 -36 94 -103 256 -150 360 l-85 191 38 149 c65 261 39
792 -44 868 -15 14 -20 15 -12 1 78 -140 86 -729 14 -920 -22 -57 -22 -57
-113 112 -49 93 -148 256 -218 362 -82 123 -129 214 -129 250 -1 148 -162 623
-296 874 -12 22 117 -45 151 -80z"/>
</g>
</svg>
